<?xml version="1.0" encoding="UTF-8" standalone="no"?>
<!-- Created with Inkscape (http://www.inkscape.org/) -->

<svg
   width="600"
   height="512"
   viewBox="0 0 600 512"
   version="1.1"
   id="svg1"
   xmlns="http://www.w3.org/2000/svg"
   xmlns:svg="http://www.w3.org/2000/svg">
  <defs
     id="defs1">
    <marker
       style="overflow:visible"
       id="marker12"
       refX="0"
       refY="0"
       orient="auto"
       markerWidth="1"
       markerHeight="1"
       viewBox="0 0 1 1"
       preserveAspectRatio="xMidYMid">
      <path
         style="fill:none;stroke:context-stroke;stroke-width:1"
         d="M 0,4 V -4"
         id="path12" />
    </marker>
    <marker
       style="overflow:visible"
       id="Stop"
       refX="0"
       refY="0"
       orient="auto"
       markerWidth="1"
       markerHeight="1"
       viewBox="0 0 1 1"
       preserveAspectRatio="xMidYMid">
      <path
         style="fill:none;stroke:context-stroke;stroke-width:1"
         d="M 0,4 V -4"
         id="path23" />
    </marker>
    <marker
       style="overflow:visible"
       id="ArrowWideRounded"
       refX="0"
       refY="0"
       orient="auto-start-reverse"
       markerWidth="1"
       markerHeight="1"
       viewBox="0 0 1 1"
       preserveAspectRatio="xMidYMid">
      <path
         style="fill:none;stroke:context-stroke;stroke-width:1;stroke-linecap:round"
         d="m -2.75,3 3,-3 -3,-3"
         id="path3" />
    </marker>
  </defs>
  <rect
     style="fill:#808080;fill-rule:evenodd;stroke:none;stroke-width:4.8782;stroke-linecap:round;paint-order:stroke fill markers"
     id="background"
     width="600"
     height="512"
     x="0"
     y="0">
    <title
       id="title1">background</title>
  </rect>
  <path
     id="hinge"
     style="display:inline;fill:#ffff00;fill-rule:evenodd;stroke:none;stroke-width:1;stroke-linecap:round;stroke-dasharray:none;paint-order:stroke fill markers"
     d="M 192.7877,45.302332 A 481.20775,438.07499 0 0 0 28.205673,71.722254 l 31.410151,78.564456 a 389.38323,354.57981 0 0 1 266.343756,0 L 357.36973,71.722254 A 481.20775,438.07499 0 0 0 192.7877,45.302332 Z">
    <title
       id="title2">hinge</title>
  </path>
  <path
     style="fill:none;fill-rule:evenodd;stroke:#ff0000;stroke-width:3;stroke-linecap:round;stroke-dasharray:none;marker-start:url(#ArrowWideRounded);marker-end:url(#ArrowWideRounded);paint-order:stroke fill markers"
     d="m 156.29009,392.15044 c 23.57524,-7.84393 49.41998,-7.84393 72.99522,0"
     id="angle">
    <title
       id="title3">angle</title>
  </path>
  <path
     style="display:inline;fill:none;fill-rule:evenodd;stroke:#0000ff;stroke-width:3;stroke-linecap:round;stroke-dasharray:none;paint-order:stroke fill markers"
     id="geometry"
     d="m 28.204959,71.721666 a 481.20775,438.07499 0 0 1 329.165481,1e-5 L 192.7877,483.37751 Z">
    <title
       id="title4">geometry</title>
  </path>
  <path
     style="display:inline;fill:none;fill-rule:evenodd;stroke:#00ff00;stroke-width:3;stroke-linecap:round;stroke-dasharray:none;marker-start:url(#Stop);marker-end:url(#marker12);paint-order:stroke fill markers"
     d="M 28.204959,71.721666 C 134.51541,36.49613 251.06,36.496134 357.37044,71.721676"
     id="arc">
    <title
       id="title5">arc</title>
  </path>
  <path
     style="fill:none;stroke:#800080;stroke-width:3;stroke-linecap:butt;stroke-linejoin:miter;stroke-dasharray:none;stroke-opacity:1;marker-start:url(#ArrowWideRounded);marker-end:url(#ArrowWideRounded)"
     d="M 59.615824,150.28671 28.204959,71.721666"
     id="height">
    <title
       id="title6">height</title>
  </path>
  <path
     d="m 379.35483,144.78584 h 3.15625 v 20.67188 h 11.35937 v 2.65625 h -14.51562 z m 17.70312,5.82813 h 2.875 v 17.5 h -2.875 z m 0,-6.8125 h 2.875 v 3.64062 h -2.875 z m 6.82813,6.8125 h 3.04687 l 5.46875,14.6875 5.46875,-14.6875 h 3.04688 l -6.5625,17.5 h -3.90625 z m 21,0 h 2.875 v 17.5 h -2.875 z m 0,-6.8125 h 2.875 v 3.64062 h -2.875 z m 23.4375,13.75 v 10.5625 h -2.875 v -10.46875 q 0,-2.48438 -0.96875,-3.71875 -0.96875,-1.23438 -2.90625,-1.23438 -2.32813,0 -3.67188,1.48438 -1.34375,1.48437 -1.34375,4.04687 v 9.89063 h -2.89062 v -17.5 h 2.89062 v 2.71875 q 1.03125,-1.57813 2.42188,-2.35938 1.40625,-0.78125 3.23437,-0.78125 3.01563,0 4.5625,1.875 1.54688,1.85938 1.54688,5.48438 z m 17.25,1.60937 q 0,-3.125 -1.29688,-4.84375 -1.28125,-1.71875 -3.60937,-1.71875 -2.3125,0 -3.60938,1.71875 -1.28125,1.71875 -1.28125,4.84375 0,3.10938 1.28125,4.82813 1.29688,1.71875 3.60938,1.71875 2.32812,0 3.60937,-1.71875 1.29688,-1.71875 1.29688,-4.82813 z m 2.875,6.78125 q 0,4.46875 -1.98438,6.64063 -1.98437,2.1875 -6.07812,2.1875 -1.51563,0 -2.85938,-0.23438 -1.34375,-0.21875 -2.60937,-0.6875 v -2.79687 q 1.26562,0.6875 2.5,1.01562 1.23437,0.32813 2.51562,0.32813 2.82813,0 4.23438,-1.48438 1.40625,-1.46875 1.40625,-4.45312 v -1.42188 q -0.89063,1.54688 -2.28125,2.3125 -1.39063,0.76563 -3.32813,0.76563 -3.21875,0 -5.1875,-2.45313 -1.96875,-2.45312 -1.96875,-6.5 0,-4.0625 1.96875,-6.51562 1.96875,-2.45313 5.1875,-2.45313 1.9375,0 3.32813,0.76563 1.39062,0.76562 2.28125,2.3125 v -2.65625 h 2.875 z m 16.21875,-21.15625 h 3.15625 v 9.5625 h 11.46875 v -9.5625 h 3.15625 v 23.32813 h -3.15625 v -11.10938 h -11.46875 v 11.10938 h -3.15625 z m 23.9375,5.82813 h 2.875 v 17.5 h -2.875 z m 0,-6.8125 h 2.875 v 3.64062 h -2.875 z m 23.4375,13.75 v 10.5625 h -2.875 v -10.46875 q 0,-2.48438 -0.96875,-3.71875 -0.96875,-1.23438 -2.90625,-1.23438 -2.32813,0 -3.67188,1.48438 -1.34375,1.48437 -1.34375,4.04687 v 9.89063 h -2.89062 v -17.5 h 2.89062 v 2.71875 q 1.03125,-1.57813 2.42188,-2.35938 1.40625,-0.78125 3.23437,-0.78125 3.01563,0 4.5625,1.875 1.54688,1.85938 1.54688,5.48438 z m 17.25,1.60937 q 0,-3.125 -1.29688,-4.84375 -1.28125,-1.71875 -3.60937,-1.71875 -2.3125,0 -3.60938,1.71875 -1.28125,1.71875 -1.28125,4.84375 0,3.10938 1.28125,4.82813 1.29688,1.71875 3.60938,1.71875 2.32812,0 3.60937,-1.71875 1.29688,-1.71875 1.29688,-4.82813 z m 2.875,6.78125 q 0,4.46875 -1.98438,6.64063 -1.98437,2.1875 -6.07812,2.1875 -1.51563,0 -2.85938,-0.23438 -1.34375,-0.21875 -2.60937,-0.6875 v -2.79687 q 1.26562,0.6875 2.5,1.01562 1.23437,0.32813 2.51562,0.32813 2.82813,0 4.23438,-1.48438 1.40625,-1.46875 1.40625,-4.45312 v -1.42188 q -0.89063,1.54688 -2.28125,2.3125 -1.39063,0.76563 -3.32813,0.76563 -3.21875,0 -5.1875,-2.45313 -1.96875,-2.45312 -1.96875,-6.5 0,-4.0625 1.96875,-6.51562 1.96875,-2.45313 5.1875,-2.45313 1.9375,0 3.32813,0.76563 1.39062,0.76562 2.28125,2.3125 v -2.65625 h 2.875 z m 20.89062,-7.29687 v 1.40625 H 559.8392 q 0.1875,2.96875 1.78125,4.53125 1.60938,1.54687 4.46875,1.54687 1.65625,0 3.20313,-0.40625 1.5625,-0.40625 3.09375,-1.21875 v 2.71875 q -1.54688,0.65625 -3.17188,1 -1.625,0.34375 -3.29687,0.34375 -4.1875,0 -6.64063,-2.4375 -2.4375,-2.4375 -2.4375,-6.59375 0,-4.29687 2.3125,-6.8125 2.32813,-2.53125 6.26563,-2.53125 3.53125,0 5.57812,2.28125 2.0625,2.26563 2.0625,6.17188 z m -2.875,-0.84375 q -0.0312,-2.35938 -1.32812,-3.76563 -1.28125,-1.40625 -3.40625,-1.40625 -2.40625,0 -3.85938,1.35938 -1.4375,1.35937 -1.65625,3.82812 z"
     id="legend_hinge"
     style="font-size:32px;line-height:1.25;-inkscape-font-specification:'sans-serif, Normal';letter-spacing:0px;word-spacing:0px;fill:#ffff00"
     aria-label="Living Hinge">
    <title
       id="title7">legend_hinge</title>
  </path>
  <path
     id="legend_geometry"
     d="m 396.60483,274.74469 v -6.26563 h -5.15625 v -2.59375 h 8.28125 v 10.01563 q -1.82813,1.29687 -4.03125,1.96875 -2.20313,0.65625 -4.70313,0.65625 -5.46875,0 -8.5625,-3.1875 -3.07812,-3.20313 -3.07812,-8.90625 0,-5.71875 3.07812,-8.90625 3.09375,-3.20313 8.5625,-3.20313 2.28125,0 4.32813,0.5625 2.0625,0.5625 3.79687,1.65625 v 3.35938 q -1.75,-1.48438 -3.71875,-2.23438 -1.96875,-0.75 -4.14062,-0.75 -4.28125,0 -6.4375,2.39063 -2.14063,2.39062 -2.14063,7.125 0,4.71875 2.14063,7.10937 2.15625,2.39063 6.4375,2.39063 1.67187,0 2.98437,-0.28125 1.3125,-0.29688 2.35938,-0.90625 z m 23.73437,-6.14063 v 1.40625 h -13.21875 q 0.1875,2.96875 1.78125,4.53125 1.60938,1.54688 4.46875,1.54688 1.65625,0 3.20313,-0.40625 1.5625,-0.40625 3.09375,-1.21875 v 2.71875 q -1.54688,0.65625 -3.17188,1 -1.625,0.34375 -3.29687,0.34375 -4.1875,0 -6.64063,-2.4375 -2.4375,-2.4375 -2.4375,-6.59375 0,-4.29688 2.3125,-6.8125 2.32813,-2.53125 6.26563,-2.53125 3.53125,0 5.57812,2.28125 2.0625,2.26562 2.0625,6.17187 z m -2.875,-0.84375 q -0.0312,-2.35937 -1.32812,-3.76562 -1.28125,-1.40625 -3.40625,-1.40625 -2.40625,0 -3.85938,1.35937 -1.4375,1.35938 -1.65625,3.82813 z m 14.375,-5.17187 q -2.3125,0 -3.65625,1.8125 -1.34375,1.79687 -1.34375,4.9375 0,3.14062 1.32813,4.95312 1.34375,1.79688 3.67187,1.79688 2.29688,0 3.64063,-1.8125 1.34375,-1.8125 1.34375,-4.9375 0,-3.10938 -1.34375,-4.92188 -1.34375,-1.82812 -3.64063,-1.82812 z m 0,-2.4375 q 3.75,0 5.89063,2.4375 2.14062,2.4375 2.14062,6.75 0,4.29687 -2.14062,6.75 -2.14063,2.4375 -5.89063,2.4375 -3.76562,0 -5.90625,-2.4375 -2.125,-2.45313 -2.125,-6.75 0,-4.3125 2.125,-6.75 2.14063,-2.4375 5.90625,-2.4375 z m 26.42188,3.78125 q 1.07812,-1.9375 2.57812,-2.85938 1.5,-0.92187 3.53125,-0.92187 2.73438,0 4.21875,1.92187 1.48438,1.90625 1.48438,5.4375 v 10.5625 h -2.89063 v -10.46875 q 0,-2.51562 -0.89062,-3.73437 -0.89063,-1.21875 -2.71875,-1.21875 -2.23438,0 -3.53125,1.48437 -1.29688,1.48438 -1.29688,4.04688 v 9.89062 h -2.89062 v -10.46875 q 0,-2.53125 -0.89063,-3.73437 -0.89062,-1.21875 -2.75,-1.21875 -2.20312,0 -3.5,1.5 -1.29687,1.48437 -1.29687,4.03125 v 9.89062 h -2.89063 v -17.5 h 2.89063 v 2.71875 q 0.98437,-1.60937 2.35937,-2.375 1.375,-0.76562 3.26563,-0.76562 1.90625,0 3.23437,0.96875 1.34375,0.96875 1.98438,2.8125 z m 32.51562,4.67187 v 1.40625 h -13.21875 q 0.1875,2.96875 1.78125,4.53125 1.60938,1.54688 4.46875,1.54688 1.65625,0 3.20313,-0.40625 1.5625,-0.40625 3.09375,-1.21875 v 2.71875 q -1.54688,0.65625 -3.17188,1 -1.625,0.34375 -3.29687,0.34375 -4.1875,0 -6.64063,-2.4375 -2.4375,-2.4375 -2.4375,-6.59375 0,-4.29688 2.3125,-6.8125 2.32813,-2.53125 6.26563,-2.53125 3.53125,0 5.57812,2.28125 2.0625,2.26562 2.0625,6.17187 z m -2.875,-0.84375 q -0.0312,-2.35937 -1.32812,-3.76562 -1.28125,-1.40625 -3.40625,-1.40625 -2.40625,0 -3.85938,1.35937 -1.4375,1.35938 -1.65625,3.82813 z m 10.4375,-12.15625 v 4.96875 h 5.92188 v 2.23438 h -5.92188 v 9.5 q 0,2.14062 0.57813,2.75 0.59375,0.60937 2.39062,0.60937 h 2.95313 v 2.40625 h -2.95313 q -3.32812,0 -4.59375,-1.23437 -1.26562,-1.25 -1.26562,-4.53125 v -9.5 h -2.10938 v -2.23438 h 2.10938 v -4.96875 z m 19.84375,7.65625 q -0.48437,-0.28125 -1.0625,-0.40625 -0.5625,-0.14062 -1.25,-0.14062 -2.4375,0 -3.75,1.59375 -1.29687,1.57812 -1.29687,4.54687 v 9.21875 h -2.89063 v -17.5 h 2.89063 v 2.71875 q 0.90625,-1.59375 2.35937,-2.35937 1.45313,-0.78125 3.53125,-0.78125 0.29688,0 0.65625,0.0469 0.35938,0.0312 0.79688,0.10938 z m 10.29688,16.4375 q -1.21875,3.125 -2.375,4.07813 -1.15625,0.95312 -3.09375,0.95312 h -2.29688 v -2.40625 h 1.6875 q 1.1875,0 1.84375,-0.5625 0.65625,-0.5625 1.45313,-2.65625 l 0.51562,-1.3125 -7.07812,-17.21875 h 3.04687 l 5.46875,13.6875 5.46875,-13.6875 h 3.04688 z m -130.3125,-63.15626 v 3.32812 q -1.59375,-1.48437 -3.40625,-2.21875 -1.79688,-0.73437 -3.82813,-0.73437 -4,0 -6.125,2.45312 -2.125,2.4375 -2.125,7.0625 0,4.60938 2.125,7.0625 2.125,2.4375 6.125,2.4375 2.03125,0 3.82813,-0.73437 1.8125,-0.73438 3.40625,-2.21875 v 3.29687 q -1.65625,1.125 -3.51563,1.6875 -1.84375,0.5625 -3.90625,0.5625 -5.29687,0 -8.34375,-3.23437 -3.04687,-3.25 -3.04687,-8.85938 0,-5.625 3.04687,-8.85937 3.04688,-3.25 8.34375,-3.25 2.09375,0 3.9375,0.5625 1.85938,0.54687 3.48438,1.65625 z m 11.53125,6.04687 q -2.3125,0 -3.65625,1.8125 -1.34375,1.79688 -1.34375,4.9375 0,3.14063 1.32812,4.95313 1.34375,1.79687 3.67188,1.79687 2.29687,0 3.64062,-1.8125 1.34375,-1.8125 1.34375,-4.9375 0,-3.10937 -1.34375,-4.92187 -1.34375,-1.82813 -3.64062,-1.82813 z m 0,-2.4375 q 3.75,0 5.89062,2.4375 2.14063,2.4375 2.14063,6.75 0,4.29688 -2.14063,6.75 -2.14062,2.4375 -5.89062,2.4375 -3.76563,0 -5.90625,-2.4375 -2.125,-2.45312 -2.125,-6.75 0,-4.3125 2.125,-6.75 2.14062,-2.4375 5.90625,-2.4375 z m 27.34375,7.35938 v 10.5625 h -2.875 v -10.46875 q 0,-2.48438 -0.96875,-3.71875 -0.96875,-1.23438 -2.90625,-1.23438 -2.32813,0 -3.67188,1.48438 -1.34375,1.48437 -1.34375,4.04687 v 9.89063 h -2.89062 v -17.5 h 2.89062 v 2.71875 q 1.03125,-1.57813 2.42188,-2.35938 1.40625,-0.78125 3.23437,-0.78125 3.01563,0 4.5625,1.875 1.54688,1.85938 1.54688,5.48438 z m 16.89062,-6.42188 v 2.71875 q -1.21875,-0.625 -2.53125,-0.9375 -1.3125,-0.3125 -2.71875,-0.3125 -2.14062,0 -3.21875,0.65625 -1.0625,0.65625 -1.0625,1.96875 0,1 0.76563,1.57813 0.76562,0.5625 3.07812,1.07812 l 0.98438,0.21875 q 3.0625,0.65625 4.34375,1.85938 1.29687,1.1875 1.29687,3.32812 0,2.4375 -1.9375,3.85938 -1.92187,1.42187 -5.29687,1.42187 -1.40625,0 -2.9375,-0.28125 -1.51563,-0.26562 -3.20313,-0.8125 v -2.96875 q 1.59375,0.82813 3.14063,1.25 1.54687,0.40625 3.0625,0.40625 2.03125,0 3.125,-0.6875 1.09375,-0.70312 1.09375,-1.96875 0,-1.17187 -0.79688,-1.79687 -0.78125,-0.625 -3.45312,-1.20313 l -1,-0.23437 q -2.67188,-0.5625 -3.85938,-1.71875 -1.1875,-1.17188 -1.1875,-3.20313 0,-2.46875 1.75,-3.8125 1.75,-1.34375 4.96875,-1.34375 1.59375,0 3,0.23438 1.40625,0.23437 2.59375,0.70312 z m 8.35938,-5.48437 v 4.96875 h 5.92187 v 2.23437 h -5.92187 v 9.5 q 0,2.14063 0.57812,2.75 0.59375,0.60938 2.39063,0.60938 h 2.95312 v 2.40625 h -2.95312 q -3.32813,0 -4.59375,-1.23438 -1.26563,-1.25 -1.26563,-4.53125 v -9.5 h -2.10937 v -2.23437 h 2.10937 v -4.96875 z m 19.84375,7.65625 q -0.48438,-0.28125 -1.0625,-0.40625 -0.5625,-0.14063 -1.25,-0.14063 -2.4375,0 -3.75,1.59375 -1.29688,1.57813 -1.29688,4.54688 v 9.21875 h -2.89062 v -17.5 h 2.89062 v 2.71875 q 0.90625,-1.59375 2.35938,-2.35938 1.45312,-0.78125 3.53125,-0.78125 0.29687,0 0.65625,0.0469 0.35937,0.0312 0.79687,0.10937 z m 2.71875,7.90625 V 220.5728 h 2.875 v 10.48437 q 0,2.48438 0.96875,3.73438 0.96875,1.23437 2.90625,1.23437 2.32812,0 3.67187,-1.48437 1.35938,-1.48438 1.35938,-4.04688 v -9.92187 h 2.875 v 17.5 h -2.875 v -2.6875 q -1.04688,1.59375 -2.4375,2.375 -1.375,0.76562 -3.20313,0.76562 -3.01562,0 -4.57812,-1.875 -1.5625,-1.875 -1.5625,-5.48437 z m 7.23437,-11.01563 z m 25.9375,1.09375 v 2.6875 q -1.21875,-0.67187 -2.45312,-1 -1.21875,-0.34375 -2.46875,-0.34375 -2.79688,0 -4.34375,1.78125 -1.54688,1.76563 -1.54688,4.96875 0,3.20313 1.54688,4.98438 1.54687,1.76562 4.34375,1.76562 1.25,0 2.46875,-0.32812 1.23437,-0.34375 2.45312,-1.01563 v 2.65625 q -1.20312,0.5625 -2.5,0.84375 -1.28125,0.28125 -2.73437,0.28125 -3.95313,0 -6.28125,-2.48437 -2.32813,-2.48438 -2.32813,-6.70313 0,-4.28125 2.34375,-6.73437 2.35938,-2.45313 6.45313,-2.45313 1.32812,0 2.59375,0.28125 1.26562,0.26563 2.45312,0.8125 z m 7.84375,-5.64062 v 4.96875 h 5.92188 v 2.23437 h -5.92188 v 9.5 q 0,2.14063 0.57813,2.75 0.59375,0.60938 2.39062,0.60938 h 2.95313 v 2.40625 h -2.95313 q -3.32812,0 -4.59375,-1.23438 -1.26562,-1.25 -1.26562,-4.53125 v -9.5 h -2.10938 v -2.23437 h 2.10938 v -4.96875 z m 9.70313,4.96875 h 2.875 v 17.5 h -2.875 z m 0,-6.8125 h 2.875 v 3.64062 h -2.875 z m 15.67187,8.82812 q -2.3125,0 -3.65625,1.8125 -1.34375,1.79688 -1.34375,4.9375 0,3.14063 1.32813,4.95313 1.34375,1.79687 3.67187,1.79687 2.29688,0 3.64063,-1.8125 1.34375,-1.8125 1.34375,-4.9375 0,-3.10937 -1.34375,-4.92187 -1.34375,-1.82813 -3.64063,-1.82813 z m 0,-2.4375 q 3.75,0 5.89063,2.4375 2.14062,2.4375 2.14062,6.75 0,4.29688 -2.14062,6.75 -2.14063,2.4375 -5.89063,2.4375 -3.76562,0 -5.90625,-2.4375 -2.125,-2.45312 -2.125,-6.75 0,-4.3125 2.125,-6.75 2.14063,-2.4375 5.90625,-2.4375 z m 27.34375,7.35938 v 10.5625 h -2.875 v -10.46875 q 0,-2.48438 -0.96875,-3.71875 -0.96875,-1.23438 -2.90625,-1.23438 -2.32812,0 -3.67187,1.48438 -1.34375,1.48437 -1.34375,4.04687 v 9.89063 h -2.89063 v -17.5 h 2.89063 v 2.71875 q 1.03125,-1.57813 2.42187,-2.35938 1.40625,-0.78125 3.23438,-0.78125 3.01562,0 4.5625,1.875 1.54687,1.85938 1.54687,5.48438 z"
     style="font-size:32px;line-height:1.25;-inkscape-font-specification:'sans-serif, Normal';letter-spacing:0px;word-spacing:0px;fill:#0000ff">
    <title
       id="title8">legend_geometry</title>
  </path>
  <path
     d="m 390.04233,327.8129 -4.28125,11.60937 h 8.57812 z m -1.78125,-3.10938 h 3.57812 l 8.89063,23.32813 h -3.28125 l -2.125,-5.98438 h -10.51563 l -2.125,5.98438 h -3.32812 z m 18.53125,20.70313 v 9.28125 h -2.89063 v -24.15625 h 2.89063 v 2.65625 q 0.90625,-1.5625 2.28125,-2.3125 1.39062,-0.76563 3.3125,-0.76563 3.1875,0 5.17187,2.53125 2,2.53125 2,6.65625 0,4.125 -2,6.65625 -1.98437,2.53125 -5.17187,2.53125 -1.92188,0 -3.3125,-0.75 -1.375,-0.76562 -2.28125,-2.32812 z m 9.78125,-6.10938 q 0,-3.17187 -1.3125,-4.96875 -1.29688,-1.8125 -3.57813,-1.8125 -2.28125,0 -3.59375,1.8125 -1.29687,1.79688 -1.29687,4.96875 0,3.17188 1.29687,4.98438 1.3125,1.79687 3.59375,1.79687 2.28125,0 3.57813,-1.79687 1.3125,-1.8125 1.3125,-4.98438 z m 22.71875,-0.73437 v 1.40625 h -13.21875 q 0.1875,2.96875 1.78125,4.53125 1.60937,1.54687 4.46875,1.54687 1.65625,0 3.20312,-0.40625 1.5625,-0.40625 3.09375,-1.21875 v 2.71875 q -1.54687,0.65625 -3.17187,1 -1.625,0.34375 -3.29688,0.34375 -4.1875,0 -6.64062,-2.4375 -2.4375,-2.4375 -2.4375,-6.59375 0,-4.29687 2.3125,-6.8125 2.32812,-2.53125 6.26562,-2.53125 3.53125,0 5.57813,2.28125 2.0625,2.26563 2.0625,6.17188 z m -2.875,-0.84375 q -0.0312,-2.35938 -1.32813,-3.76563 -1.28125,-1.40625 -3.40625,-1.40625 -2.40625,0 -3.85937,1.35938 -1.4375,1.35937 -1.65625,3.82812 z m 21.57812,-7.1875 -6.32812,8.51562 6.65625,8.98438 h -3.39063 l -5.09375,-6.875 -5.09375,6.875 h -3.39062 l 6.79687,-9.15625 -6.21875,-8.34375 h 3.39063 l 4.64062,6.23437 4.64063,-6.23437 z m 22.48438,-2.71875 -4.28125,11.60937 h 8.57812 z m -1.78125,-3.10938 h 3.57812 l 8.89063,23.32813 h -3.28125 l -2.125,-5.98438 h -10.51563 l -2.125,5.98438 h -3.32812 z m 30.29687,12.76563 v 10.5625 h -2.875 V 337.5629 q 0,-2.48438 -0.96875,-3.71875 -0.96875,-1.23438 -2.90625,-1.23438 -2.32812,0 -3.67187,1.48438 -1.34375,1.48437 -1.34375,4.04687 v 9.89063 h -2.89063 v -17.5 h 2.89063 v 2.71875 q 1.03125,-1.57813 2.42187,-2.35938 1.40625,-0.78125 3.23438,-0.78125 3.01562,0 4.5625,1.875 1.54687,1.85938 1.54687,5.48438 z m 17.25,1.60937 q 0,-3.125 -1.29687,-4.84375 -1.28125,-1.71875 -3.60938,-1.71875 -2.3125,0 -3.60937,1.71875 -1.28125,1.71875 -1.28125,4.84375 0,3.10938 1.28125,4.82813 1.29687,1.71875 3.60937,1.71875 2.32813,0 3.60938,-1.71875 1.29687,-1.71875 1.29687,-4.82813 z m 2.875,6.78125 q 0,4.46875 -1.98437,6.64063 -1.98438,2.1875 -6.07813,2.1875 -1.51562,0 -2.85937,-0.23438 -1.34375,-0.21875 -2.60938,-0.6875 v -2.79687 q 1.26563,0.6875 2.5,1.01562 1.23438,0.32813 2.51563,0.32813 2.82812,0 4.23437,-1.48438 1.40625,-1.46875 1.40625,-4.45312 v -1.42188 q -0.89062,1.54688 -2.28125,2.3125 -1.39062,0.76563 -3.32812,0.76563 -3.21875,0 -5.1875,-2.45313 -1.96875,-2.45312 -1.96875,-6.5 0,-4.0625 1.96875,-6.51562 1.96875,-2.45313 5.1875,-2.45313 1.9375,0 3.32812,0.76563 1.39063,0.76562 2.28125,2.3125 v -2.65625 h 2.875 z m 5.92188,-22.14062 h 2.875 v 24.3125 h -2.875 z m 23.85937,14.84375 v 1.40625 h -13.21875 q 0.1875,2.96875 1.78125,4.53125 1.60938,1.54687 4.46875,1.54687 1.65625,0 3.20313,-0.40625 1.5625,-0.40625 3.09375,-1.21875 v 2.71875 q -1.54688,0.65625 -3.17188,1 -1.625,0.34375 -3.29687,0.34375 -4.1875,0 -6.64063,-2.4375 -2.4375,-2.4375 -2.4375,-6.59375 0,-4.29687 2.3125,-6.8125 2.32813,-2.53125 6.26563,-2.53125 3.53125,0 5.57812,2.28125 2.0625,2.26563 2.0625,6.17188 z m -2.875,-0.84375 q -0.0312,-2.35938 -1.32812,-3.76563 -1.28125,-1.40625 -3.40625,-1.40625 -2.40625,0 -3.85938,1.35938 -1.4375,1.35937 -1.65625,3.82812 z"
     id="legend_angle"
     style="font-size:32px;line-height:1.25;-inkscape-font-specification:'sans-serif, Normal';letter-spacing:0px;word-spacing:0px;fill:#ff0000"
     aria-label="Apex Angle">
    <title
       id="title9">legend_angle</title>
  </path>
  <path
     d="m 390.04233,396.78735 -4.28125,11.60938 h 8.57812 z m -1.78125,-3.10937 h 3.57812 l 8.89063,23.32812 h -3.28125 l -2.125,-5.98437 h -10.51563 l -2.125,5.98437 h -3.32812 z m 25.89062,8.51562 q -0.48437,-0.28125 -1.0625,-0.40625 -0.5625,-0.14062 -1.25,-0.14062 -2.4375,0 -3.75,1.59375 -1.29687,1.57812 -1.29687,4.54687 v 9.21875 h -2.89063 v -17.5 h 2.89063 v 2.71875 q 0.90625,-1.59375 2.35937,-2.35937 1.45313,-0.78125 3.53125,-0.78125 0.29688,0 0.65625,0.0469 0.35938,0.0312 0.79688,0.10938 z m 14.90625,-2.01562 v 2.6875 q -1.21875,-0.67188 -2.45312,-1 -1.21875,-0.34375 -2.46875,-0.34375 -2.79688,0 -4.34375,1.78125 -1.54688,1.76562 -1.54688,4.96875 0,3.20312 1.54688,4.98437 1.54687,1.76563 4.34375,1.76563 1.25,0 2.46875,-0.32813 1.23437,-0.34375 2.45312,-1.01562 v 2.65625 q -1.20312,0.5625 -2.5,0.84375 -1.28125,0.28125 -2.73437,0.28125 -3.95313,0 -6.28125,-2.48438 -2.32813,-2.48437 -2.32813,-6.70312 0,-4.28125 2.34375,-6.73438 2.35938,-2.45312 6.45313,-2.45312 1.32812,0 2.59375,0.28125 1.26562,0.26562 2.45312,0.8125 z"
     id="legend_arc"
     style="font-size:32px;line-height:1.25;-inkscape-font-specification:'sans-serif, Normal';letter-spacing:0px;word-spacing:0px;fill:#00ff00"
     aria-label="Arc">
    <title
       id="title10">legend_arc</title>
  </path>
  <path
     d="m 379.35483,457.43369 h 3.15625 v 9.5625 h 11.46875 v -9.5625 h 3.15625 v 23.32812 h -3.15625 v -11.10937 h -11.46875 v 11.10937 h -3.15625 z m 38.90625,13.85937 v 1.40625 h -13.21875 q 0.1875,2.96875 1.78125,4.53125 1.60937,1.54688 4.46875,1.54688 1.65625,0 3.20312,-0.40625 1.5625,-0.40625 3.09375,-1.21875 v 2.71875 q -1.54687,0.65625 -3.17187,1 -1.625,0.34375 -3.29688,0.34375 -4.1875,0 -6.64062,-2.4375 -2.4375,-2.4375 -2.4375,-6.59375 0,-4.29688 2.3125,-6.8125 2.32812,-2.53125 6.26562,-2.53125 3.53125,0 5.57813,2.28125 2.0625,2.26562 2.0625,6.17187 z m -2.875,-0.84375 q -0.0312,-2.35937 -1.32813,-3.76562 -1.28125,-1.40625 -3.40625,-1.40625 -2.40625,0 -3.85937,1.35937 -1.4375,1.35938 -1.65625,3.82813 z m 7.59375,-7.1875 h 2.875 v 17.5 h -2.875 z m 0,-6.8125 h 2.875 v 3.64063 h -2.875 z m 20.40625,15.35938 q 0,-3.125 -1.29688,-4.84375 -1.28125,-1.71875 -3.60937,-1.71875 -2.3125,0 -3.60938,1.71875 -1.28125,1.71875 -1.28125,4.84375 0,3.10937 1.28125,4.82812 1.29688,1.71875 3.60938,1.71875 2.32812,0 3.60937,-1.71875 1.29688,-1.71875 1.29688,-4.82812 z m 2.875,6.78125 q 0,4.46875 -1.98438,6.64062 -1.98437,2.1875 -6.07812,2.1875 -1.51563,0 -2.85938,-0.23437 -1.34375,-0.21875 -2.60937,-0.6875 v -2.79688 q 1.26562,0.6875 2.5,1.01563 1.23437,0.32812 2.51562,0.32812 2.82813,0 4.23438,-1.48437 1.40625,-1.46875 1.40625,-4.45313 v -1.42187 q -0.89063,1.54687 -2.28125,2.3125 -1.39063,0.76562 -3.32813,0.76562 -3.21875,0 -5.1875,-2.45312 -1.96875,-2.45313 -1.96875,-6.5 0,-4.0625 1.96875,-6.51563 1.96875,-2.45312 5.1875,-2.45312 1.9375,0 3.32813,0.76562 1.39062,0.76563 2.28125,2.3125 v -2.65625 h 2.875 z m 20.46875,-8.39063 v 10.5625 h -2.875 v -10.46875 q 0,-2.48437 -0.96875,-3.71875 -0.96875,-1.23437 -2.90625,-1.23437 -2.32813,0 -3.67188,1.48437 -1.34375,1.48438 -1.34375,4.04688 v 9.89062 h -2.89062 v -24.3125 h 2.89062 v 9.53125 q 1.03125,-1.57812 2.42188,-2.35937 1.40625,-0.78125 3.23437,-0.78125 3.01563,0 4.5625,1.875 1.54688,1.85937 1.54688,5.48437 z m 8.57812,-11.90625 v 4.96875 h 5.92188 v 2.23438 h -5.92188 v 9.5 q 0,2.14062 0.57813,2.75 0.59375,0.60937 2.39062,0.60937 h 2.95313 v 2.40625 h -2.95313 q -3.32812,0 -4.59375,-1.23437 -1.26562,-1.25 -1.26562,-4.53125 v -9.5 h -2.10938 v -2.23438 h 2.10938 v -4.96875 z"
     id="legend_height"
     style="font-size:32px;line-height:1.25;-inkscape-font-specification:'sans-serif, Normal';letter-spacing:0px;word-spacing:0px;fill:#800080"
     aria-label="Height">
    <title
       id="title11">legend_height</title>
  </path>
</svg>
